<?xml version="1.0" encoding="utf-8"?>
<!-- Generator: Adobe Illustrator 22.0.0, SVG Export Plug-In . SVG Version: 6.00 Build 0)  -->
<svg version="1.1" id="Layer_1" xmlns="http://www.w3.org/2000/svg" xmlns:xlink="http://www.w3.org/1999/xlink" x="0px" y="0px"
	 viewBox="0 0 117.3 102.7" style="enable-background:new 0 0 117.3 102.7;" xml:space="preserve">
<style type="text/css">
	.st0{opacity:0.7;fill:#00B050;stroke:#00B050;stroke-width:5;stroke-linejoin:round;stroke-miterlimit:10;}
	.st1{fill:#FFFFFF;}
	.st2{fill:#00B050;}
	.st3{font-family:'TimesNewRomanPSMT';}
	.st4{font-size:25.2092px;}
</style>
<path class="st0" d="M58.9,9.6c-21.1,0-38.1,18.2-38.1,40.6s17.1,40.6,38.1,40.6C79.9,90.8,97,72.7,97,50.2S79.9,9.6,58.9,9.6z"/>
<path class="st1" d="M54.9,56c0.5,0,1,0,1.7,0c1.2-0.1,2.4-0.5,3.3-1.3c1.1-0.8,1.8-2.1,2.1-3.6l-0.1,0c-0.8,0.9-2,1.4-3.6,1.4
	c-2.8,0-5-2.1-5-5.1c0-3.1,2.4-5.9,5.9-5.9c3.8,0,5.8,3,5.8,7c0,3.5-1.1,6-2.9,7.6c-1.4,1.3-3.4,2.1-5.6,2.2
	c-0.7,0.1-1.4,0.1-1.9,0.1V56z M56.5,47.3c0,1.7,1,3,2.7,3c1.2,0,2.2-0.6,2.6-1.4c0.1-0.2,0.2-0.5,0.2-0.9c0-2.2-0.8-4.1-2.8-4.1
	C57.6,43.9,56.5,45.3,56.5,47.3z"/>
<text transform="matrix(1 0 0 1 65.2207 58.2627)" class="st2 st3 st4"> </text>
</svg>
