<?xml version="1.0" encoding="utf-8"?>
<!-- Generator: Adobe Illustrator 22.0.0, SVG Export Plug-In . SVG Version: 6.00 Build 0)  -->
<svg version="1.1" id="Layer_1" xmlns="http://www.w3.org/2000/svg" xmlns:xlink="http://www.w3.org/1999/xlink" x="0px" y="0px"
	 viewBox="0 0 117.3 102.7" style="enable-background:new 0 0 117.3 102.7;" xml:space="preserve">
<style type="text/css">
	.st0{opacity:0.7;fill:#FFC000;stroke:#FFC000;stroke-width:5;stroke-linejoin:round;stroke-miterlimit:10;}
	.st1{fill:#FFFFFF;}
	.st2{fill:#FFC000;}
	.st3{font-family:'TimesNewRomanPSMT';}
	.st4{font-size:25.2092px;}
</style>
<path class="st0" d="M96,50.4C96,27.9,78.9,9.8,57.9,9.8c-21.1,0-38.1,18.2-38.1,40.6C19.7,72.8,36.8,91,57.9,91
	C78.9,91,96,72.8,96,50.4"/>
<path class="st1" d="M53.3,55c0.6,0.4,2.2,1,3.7,1c2.4,0,3.3-1.3,3.3-2.6c0-1.9-1.8-2.8-3.7-2.8h-1.4v-2.3h1.4
	c1.4,0,3.2-0.6,3.2-2.3c0-1.1-0.8-2.1-2.6-2.1c-1.3,0-2.7,0.6-3.4,1l-0.7-2.2c0.9-0.6,2.8-1.3,4.7-1.3c3.4,0,5.1,1.9,5.1,4
	c0,1.7-1,3.1-3,3.8v0.1c2,0.4,3.6,1.9,3.6,4.1c0,2.8-2.3,5-6.4,5c-2,0-3.7-0.6-4.6-1.1L53.3,55z"/>
<text transform="matrix(1 0 0 1 64.249 58.2461)" class="st2 st3 st4"> </text>
</svg>
