<?xml version="1.0" encoding="utf-8"?>
<!-- Generator: Adobe Illustrator 22.0.0, SVG Export Plug-In . SVG Version: 6.00 Build 0)  -->
<svg version="1.1" id="Layer_1" xmlns="http://www.w3.org/2000/svg" xmlns:xlink="http://www.w3.org/1999/xlink" x="0px" y="0px"
	 viewBox="0 0 117.3 102.7" style="enable-background:new 0 0 117.3 102.7;" xml:space="preserve">
<style type="text/css">
	.st0{opacity:0.7;fill:#FFC000;stroke:#FFC000;stroke-width:5;stroke-linejoin:round;stroke-miterlimit:10;}
	.st1{fill:#FFFFFF;}
	.st2{fill:#FFC000;}
	.st3{font-family:'TimesNewRomanPSMT';}
	.st4{font-size:25.2092px;}
</style>
<path class="st0" d="M57.7,9.6c-21.1,0-38.1,18.2-38.1,40.6s17.1,40.6,38.1,40.6c21.1,0,38.1-18.2,38.1-40.6S78.8,9.6,57.7,9.6z"/>
<path class="st1" d="M62.4,44.1c-0.5,0-1,0-1.6,0.1c-3.4,0.4-5.1,2.5-5.5,4.8h0.1c0.8-0.9,2-1.6,3.7-1.6c2.8,0,5,2,5,5.3
	c0,3.1-2.3,5.9-5.8,5.9c-4,0-6.2-3-6.2-7.1c0-3.2,1.1-5.7,2.8-7.3c1.5-1.4,3.5-2.2,5.8-2.4c0.7-0.1,1.2-0.1,1.6-0.1L62.4,44.1z
	 M61,52.9c0-1.9-1-3.2-2.9-3.2c-1.2,0-2.2,0.7-2.7,1.7c-0.1,0.2-0.2,0.5-0.2,1c0.1,2.2,1.1,3.9,3.1,3.9C60,56.2,61,54.8,61,52.9z"/>
<text transform="matrix(1 0 0 1 64.0957 58.2627)" class="st2 st3 st4"> </text>
</svg>
