<?xml version="1.0" encoding="utf-8"?>
<!-- Generator: Adobe Illustrator 22.0.0, SVG Export Plug-In . SVG Version: 6.00 Build 0)  -->
<svg version="1.1" id="Layer_1" xmlns="http://www.w3.org/2000/svg" xmlns:xlink="http://www.w3.org/1999/xlink" x="0px" y="0px"
	 viewBox="0 0 117.3 102.7" style="enable-background:new 0 0 117.3 102.7;" xml:space="preserve">
<style type="text/css">
	.st0{opacity:0.7;fill:#00B050;stroke:#00B050;stroke-width:5;stroke-linejoin:round;stroke-miterlimit:10;}
	.st1{fill:#FFFFFF;}
	.st2{fill:#00B050;}
	.st3{font-family:'TimesNewRomanPSMT';}
	.st4{font-size:25.2092px;}
</style>
<path class="st0" d="M58.5,9.8c-21.1,0-38.1,18.2-38.1,40.6C20.4,72.8,37.4,91,58.5,91c21.1,0,38.1-18.2,38.1-40.6
	C96.6,27.9,79.6,9.8,58.5,9.8z"/>
<path class="st1" d="M53,54c0-2,1.2-3.4,3.1-4.2l0-0.1c-1.7-0.8-2.5-2.2-2.5-3.6c0-2.7,2.4-4.5,5.5-4.5c3.5,0,5.1,2.1,5.1,4.1
	c0,1.4-0.7,2.8-2.5,3.7v0.1c1.8,0.7,3.1,2.1,3.1,4.1c0,2.9-2.5,4.9-6,4.9C55,58.5,53,56.3,53,54z M61.7,53.9c0-1.7-1.2-2.6-3-3.1
	c-1.5,0.4-2.4,1.5-2.4,2.9c0,1.4,1,2.7,2.8,2.7C60.6,56.3,61.7,55.3,61.7,53.9z M56.5,45.9c0,1.3,1.1,2.1,2.7,2.6
	c1.1-0.3,2-1.3,2-2.5c0-1.1-0.7-2.3-2.3-2.3C57.4,43.7,56.5,44.7,56.5,45.9z"/>
<text transform="matrix(1 0 0 1 64.8613 58.2461)" class="st2 st3 st4"> </text>
</svg>
