<?xml version="1.0" encoding="utf-8"?>
<!-- Generator: Adobe Illustrator 22.0.0, SVG Export Plug-In . SVG Version: 6.00 Build 0)  -->
<svg version="1.1" id="Layer_1" xmlns="http://www.w3.org/2000/svg" xmlns:xlink="http://www.w3.org/1999/xlink" x="0px" y="0px"
	 viewBox="0 0 1080 1920" style="enable-background:new 0 0 1080 1920;" xml:space="preserve">
<style type="text/css">
	.st0{fill:#FFFFFF;}
	.st1{font-family:'Montserrat-Bold';}
	.st2{font-size:111px;}
	.st3{letter-spacing:-7;}
	.st4{fill:none;stroke:#282B66;stroke-width:2;stroke-miterlimit:10;}
	.st5{fill:#282B66;}
	.st6{fill:none;stroke:#313131;stroke-width:2;stroke-miterlimit:10;}
</style>
<g>
	<text transform="matrix(1 0 0 1 125.5322 1067.9082)"><tspan x="0" y="0" class="st0 st1 st2 st3">S</tspan><tspan x="63" y="0" class="st0 st1 st2">e</tspan></text>
	<text transform="matrix(1 0 0 1 250.6289 1067.9082)" class="st0 st1 st2">e</text>
	<text transform="matrix(1 0 0 1 312.6782 1067.9082)" class="st0 st1 st2"> </text>
	<text transform="matrix(1 0 0 1 336.21 1067.9082)" class="st0 st1 st2">T</text>
	<text transform="matrix(1 0 0 1 390.7114 1067.9082)" class="st0 st1 st2">o</text>
	<text transform="matrix(1 0 0 1 455.4243 1067.9082)" class="st0 st1 st2">u</text>
	<text transform="matrix(1 0 0 1 523.8003 1067.9082)" class="st0 st1 st2">c</text>
	<text transform="matrix(1 0 0 1 581.0762 1067.9082)" class="st0 st1 st2">h</text>
	<g>
		<path class="st4" d="M160.3,1069.2c7.1,0,13.1-1.1,18.1-3.2c5-2.1,8.7-5.1,11.2-8.7c2.5-3.7,3.7-7.7,3.7-12.2
			c0-5.2-1.4-9.3-4.1-12.3c-2.7-3-5.9-5.3-9.7-6.7s-8.6-2.8-14.5-4.2c-5.7-1.3-9.9-2.5-12.7-3.8c-2.8-1.3-4.2-3.3-4.2-5.9
			s1.2-4.8,3.6-6.4c2.4-1.6,6.1-2.4,11.2-2.4c7.2,0,14.4,2,21.5,6.1l5.6-13.7c-3.6-2.2-7.7-3.9-12.4-5.1c-4.7-1.2-9.6-1.8-14.5-1.8
			c-7.1,0-13.1,1.1-18,3.2c-4.9,2.1-8.6,5-11,8.7c-2.4,3.7-3.7,7.8-3.7,12.3c0,5.2,1.3,9.3,4.1,12.4c2.7,3.1,5.9,5.4,9.7,6.8
			c3.8,1.4,8.6,2.8,14.5,4.2c3.8,0.9,6.9,1.7,9.2,2.4c2.3,0.7,4.1,1.7,5.6,2.9c1.4,1.2,2.2,2.8,2.2,4.6c0,2.5-1.2,4.5-3.7,6
			c-2.4,1.5-6.2,2.3-11.3,2.3c-4.6,0-9.2-0.7-13.8-2.2c-4.6-1.5-8.5-3.4-11.9-5.9l-6.1,13.5c3.5,2.7,8.1,4.8,13.8,6.5
			C148.2,1068.4,154.1,1069.2,160.3,1069.2z"/>
		<path class="st4" d="M223.9,1020.4c3.8,0,7.1,1.1,9.8,3.4c2.7,2.3,4.3,5.3,4.9,9h-29.4c0.6-3.8,2.2-6.9,4.9-9.1
			C216.7,1021.5,220,1020.4,223.9,1020.4z M254.8,1038.3c0-6.2-1.4-11.7-4.1-16.4c-2.7-4.7-6.4-8.3-11.2-10.8
			c-4.7-2.5-10-3.8-15.9-3.8c-6,0-11.4,1.3-16.3,3.9c-4.8,2.6-8.7,6.3-11.4,11c-2.8,4.7-4.2,10-4.2,15.8c0,5.9,1.4,11.2,4.2,15.9
			c2.8,4.7,6.8,8.3,12,10.9c5.2,2.6,11.1,3.9,17.9,3.9c10.8,0,19-3.2,24.6-9.7l-9.2-10c-2.1,2-4.3,3.5-6.7,4.4
			c-2.4,0.9-5.2,1.4-8.3,1.4c-4.5,0-8.3-1.1-11.3-3.2c-3-2.1-5-5.1-5.8-8.8h45.2C254.7,1040,254.8,1038.5,254.8,1038.3z"/>
		<path class="st4" d="M285.9,1020.4c3.8,0,7.1,1.1,9.8,3.4c2.7,2.3,4.3,5.3,4.9,9h-29.4c0.6-3.8,2.2-6.9,4.9-9.1
			C278.7,1021.5,282,1020.4,285.9,1020.4z M316.9,1038.3c0-6.2-1.4-11.7-4.1-16.4c-2.7-4.7-6.4-8.3-11.2-10.8
			c-4.7-2.5-10-3.8-15.9-3.8c-6,0-11.4,1.3-16.3,3.9c-4.8,2.6-8.7,6.3-11.4,11c-2.8,4.7-4.2,10-4.2,15.8c0,5.9,1.4,11.2,4.2,15.9
			c2.8,4.7,6.8,8.3,12,10.9c5.2,2.6,11.1,3.9,17.9,3.9c10.8,0,19-3.2,24.6-9.7l-9.2-10c-2.1,2-4.3,3.5-6.7,4.4
			c-2.4,0.9-5.2,1.4-8.3,1.4c-4.5,0-8.3-1.1-11.3-3.2c-3-2.1-5-5.1-5.8-8.8h45.2C316.8,1040,316.9,1038.5,316.9,1038.3z"/>
		<polygon class="st4" points="361.2,1067.9 379.2,1067.9 379.2,1004.9 404,1004.9 404,990.2 336.3,990.2 336.3,1004.9 
			361.2,1004.9 		"/>
		<path class="st4" d="M426.8,1054.6c-4.4,0-8.1-1.5-11-4.5c-2.9-3-4.3-7-4.3-12c0-5,1.4-9,4.3-12c2.9-3,6.5-4.5,11-4.5
			c4.4,0,8.1,1.5,10.9,4.5c2.8,3,4.3,7,4.3,12c0,5-1.4,9-4.3,12C434.9,1053.1,431.2,1054.6,426.8,1054.6z M426.8,1068.8
			c6.3,0,11.9-1.3,16.9-3.9c5-2.6,8.8-6.3,11.7-10.9c2.8-4.7,4.2-10,4.2-15.9c0-5.9-1.4-11.2-4.2-15.9c-2.8-4.7-6.7-8.3-11.7-10.9
			c-5-2.6-10.6-3.9-16.9-3.9c-6.3,0-11.9,1.3-16.9,3.9c-5,2.6-8.9,6.3-11.7,10.9c-2.8,4.7-4.2,10-4.2,15.9c0,5.9,1.4,11.2,4.2,15.9
			c2.8,4.7,6.7,8.3,11.7,10.9C414.9,1067.5,420.5,1068.8,426.8,1068.8z"/>
		<path class="st4" d="M505.9,1008.2v29.5c0,5.3-1.3,9.3-3.8,12c-2.5,2.7-5.8,4.1-10,4.1c-8.1,0-12.1-4.8-12.1-14.4v-31.2h-17.3
			v33.7c0,8.9,2.3,15.6,6.9,20.1c4.6,4.5,10.8,6.8,18.6,6.8c3.7,0,7.1-0.7,10.3-2.1c3.2-1.4,5.9-3.3,8.2-5.9v7.1h16.4v-59.7H505.9z"
			/>
		<path class="st4" d="M560.2,1068.8c6.3,0,11.8-1.3,16.5-4c4.7-2.7,8.1-6.4,10.3-11.1l-13.4-7.3c-3,5.5-7.5,8.2-13.4,8.2
			c-4.5,0-8.3-1.5-11.2-4.4c-3-3-4.4-7-4.4-12.1c0-5.1,1.5-9.1,4.4-12.1c3-3,6.7-4.4,11.2-4.4c5.8,0,10.3,2.7,13.4,8.2l13.4-7.2
			c-2.1-4.9-5.6-8.6-10.3-11.3c-4.7-2.6-10.2-3.9-16.5-3.9c-6.4,0-12.1,1.3-17.1,3.9c-5.1,2.6-9,6.3-11.9,10.9
			c-2.9,4.7-4.3,10-4.3,15.9c0,5.9,1.4,11.2,4.3,15.9c2.8,4.7,6.8,8.3,11.9,10.9C548.1,1067.5,553.8,1068.8,560.2,1068.8z"/>
		<path class="st4" d="M624.8,1007.3c-3.9,0-7.4,0.6-10.7,1.8c-3.3,1.2-6,3-8.3,5.3v-28.9h-17.3v82.4h17.3v-29.5
			c0-5.3,1.3-9.3,3.9-12c2.6-2.7,6.1-4.1,10.4-4.1c3.9,0,6.9,1.2,9,3.5c2.1,2.3,3.1,5.9,3.1,10.6v31.5h17.3v-34.2
			c0-8.7-2.3-15.3-6.8-19.8C638.2,1009.5,632.2,1007.3,624.8,1007.3z"/>
	</g>
	<text transform="matrix(1 0 0 1 649.2256 1067.9082)" class="st0 st1 st2"> </text>
	<text transform="matrix(1 0 0 1 672.6465 1067.9082)" class="st0 st1 st2">S</text>
	<text transform="matrix(1 0 0 1 735.584 1067.9082)" class="st0 st1 st2">m</text>
	<text transform="matrix(1 0 0 1 844.6963 1067.9082)" class="st0 st1 st2">e</text>
	<text transform="matrix(1 0 0 1 906.8564 1067.9082)" class="st0 st1 st2">l</text>
	<text transform="matrix(1 0 0 1 932.2754 1067.9082)" class="st0 st1 st2">l</text>
	<g>
		<path class="st4" d="M707.4,1069.2c7.1,0,13.1-1.1,18.1-3.2c5-2.1,8.7-5.1,11.2-8.7c2.5-3.7,3.7-7.7,3.7-12.2
			c0-5.2-1.4-9.3-4.1-12.3c-2.7-3-5.9-5.3-9.7-6.7c-3.8-1.4-8.6-2.8-14.5-4.2c-5.7-1.3-9.9-2.5-12.7-3.8c-2.8-1.3-4.2-3.3-4.2-5.9
			s1.2-4.8,3.6-6.4c2.4-1.6,6.1-2.4,11.2-2.4c7.2,0,14.4,2,21.5,6.1l5.5-13.7c-3.6-2.2-7.7-3.9-12.4-5.1c-4.7-1.2-9.6-1.8-14.5-1.8
			c-7.1,0-13.1,1.1-18,3.2c-4.9,2.1-8.6,5-11,8.7c-2.4,3.7-3.7,7.8-3.7,12.3c0,5.2,1.4,9.3,4.1,12.4c2.7,3.1,5.9,5.4,9.7,6.8
			c3.8,1.4,8.6,2.8,14.5,4.2c3.8,0.9,6.9,1.7,9.2,2.4c2.3,0.7,4.1,1.7,5.6,2.9c1.4,1.2,2.2,2.8,2.2,4.6c0,2.5-1.2,4.5-3.7,6
			c-2.4,1.5-6.2,2.3-11.3,2.3c-4.6,0-9.2-0.7-13.8-2.2c-4.6-1.5-8.5-3.4-11.9-5.9l-6.1,13.5c3.5,2.7,8.1,4.8,13.8,6.5
			C695.3,1068.4,701.2,1069.2,707.4,1069.2z"/>
		<path class="st4" d="M819.9,1007.3c-4.4,0-8.5,0.9-12.3,2.6c-3.7,1.7-6.8,4.1-9.3,7.2c-2.1-3.2-4.8-5.6-8.2-7.3
			c-3.4-1.7-7.2-2.5-11.4-2.5c-3.8,0-7.4,0.7-10.6,2c-3.2,1.3-5.9,3.3-8.2,5.8v-6.9h-16.5v59.7h17.3v-30c0-5.2,1.2-9.1,3.6-11.7
			c2.4-2.6,5.5-3.9,9.5-3.9c7.5,0,11.3,4.7,11.3,14.1v31.5h17.3v-30c0-5.2,1.2-9.1,3.6-11.7c2.4-2.6,5.6-3.9,9.7-3.9
			c3.6,0,6.4,1.2,8.4,3.5c2,2.3,2.9,5.9,2.9,10.6v31.5h17.3v-34.2c0-8.8-2.2-15.4-6.6-19.8C833.4,1009.5,827.4,1007.3,819.9,1007.3z
			"/>
		<path class="st4" d="M880.1,1020.4c3.8,0,7.1,1.1,9.8,3.4c2.7,2.3,4.3,5.3,4.9,9h-29.4c0.6-3.8,2.2-6.9,4.9-9.1
			C872.9,1021.5,876.2,1020.4,880.1,1020.4z M911.1,1038.3c0-6.2-1.4-11.7-4.1-16.4c-2.7-4.7-6.4-8.3-11.2-10.8
			c-4.7-2.5-10-3.8-15.9-3.8c-6,0-11.4,1.3-16.3,3.9c-4.8,2.6-8.7,6.3-11.4,11c-2.8,4.7-4.2,10-4.2,15.8c0,5.9,1.4,11.2,4.2,15.9
			s6.8,8.3,12,10.9c5.2,2.6,11.1,3.9,17.9,3.9c10.8,0,19-3.2,24.6-9.7l-9.2-10c-2.1,2-4.3,3.5-6.7,4.4c-2.4,0.9-5.2,1.4-8.3,1.4
			c-4.5,0-8.3-1.1-11.3-3.2c-3-2.1-5-5.1-5.8-8.8h45.2C911,1040,911.1,1038.5,911.1,1038.3z"/>
		<rect x="914.6" y="985.5" class="st4" width="17.3" height="82.4"/>
		<rect x="940" y="985.5" class="st4" width="17.3" height="82.4"/>
	</g>
	<g>
		<path class="st0" d="M289.8,880.6c0-0.2,0-0.4-0.1-0.5c0-0.1-0.1-0.1-0.1-0.2c0-0.1,0-0.2-0.1-0.3c-11.9-22.7-37.7-39-65-39
			c-27.3,0-53.1,16.3-65,39c-0.1,0.1,0,0.2-0.1,0.3c0,0.1-0.1,0.1-0.1,0.2c-0.1,0.2,0,0.4-0.1,0.5c-0.1,0.3-0.1,0.6-0.1,0.9
			c0,0.3,0.1,0.6,0.1,0.9c0,0.2,0,0.4,0.1,0.5c0,0.1,0.1,0.1,0.1,0.2c0,0.1,0,0.2,0.1,0.3c11.9,22.7,37.7,39,65,39
			c27.3,0,53.1-16.3,65-39c0.1-0.1,0-0.2,0.1-0.3c0-0.1,0.1-0.1,0.1-0.2c0.1-0.2,0-0.4,0.1-0.5c0.1-0.3,0.1-0.6,0.1-0.9
			S289.8,880.9,289.8,880.6 M224.5,914.2c-23,0-45.5-13.1-56.7-32.7c11.3-19.7,33.7-32.7,56.7-32.7c23,0,45.5,13.1,56.7,32.7
			C269.9,901.2,247.5,914.2,224.5,914.2"/>
		<path class="st4" d="M289.8,880.6c0-0.2,0-0.4-0.1-0.5c0-0.1-0.1-0.1-0.1-0.2c0-0.1,0-0.2-0.1-0.3c-11.9-22.7-37.7-39-65-39
			c-27.3,0-53.1,16.3-65,39c-0.1,0.1,0,0.2-0.1,0.3c0,0.1-0.1,0.1-0.1,0.2c-0.1,0.2,0,0.4-0.1,0.5c-0.1,0.3-0.1,0.6-0.1,0.9
			c0,0.3,0.1,0.6,0.1,0.9c0,0.2,0,0.4,0.1,0.5c0,0.1,0.1,0.1,0.1,0.2c0,0.1,0,0.2,0.1,0.3c11.9,22.7,37.7,39,65,39
			c27.3,0,53.1-16.3,65-39c0.1-0.1,0-0.2,0.1-0.3c0-0.1,0.1-0.1,0.1-0.2c0.1-0.2,0-0.4,0.1-0.5c0.1-0.3,0.1-0.6,0.1-0.9
			S289.8,880.9,289.8,880.6z M224.5,914.2c-23,0-45.5-13.1-56.7-32.7c11.3-19.7,33.7-32.7,56.7-32.7c23,0,45.5,13.1,56.7,32.7
			C269.9,901.2,247.5,914.2,224.5,914.2z"/>
		<path class="st0" d="M224.5,865.1C224.5,865.1,224.5,865.1,224.5,865.1c-9.1,0-16.4,7.3-16.4,16.4c0,1.1,0.9,2,2,2
			c1.1,0,2-0.9,2-2c0-6.8,5.5-12.3,12.3-12.3v0c1.1,0,2-0.9,2-2C226.5,866,225.6,865.1,224.5,865.1"/>
		<path class="st4" d="M224.5,865.1C224.5,865.1,224.5,865.1,224.5,865.1c-9.1,0-16.4,7.3-16.4,16.4c0,1.1,0.9,2,2,2
			c1.1,0,2-0.9,2-2c0-6.8,5.5-12.3,12.3-12.3v0c1.1,0,2-0.9,2-2C226.5,866,225.6,865.1,224.5,865.1z"/>
		<path class="st0" d="M224.4,852.9c-15.8,0-28.7,12.8-28.7,28.7c0,15.8,12.8,28.7,28.7,28.7c15.8,0,28.7-12.8,28.7-28.7
			C253.1,865.7,240.2,852.9,224.4,852.9 M224.4,906.1c-13.5,0-24.6-11-24.6-24.6c0-13.5,11-24.6,24.6-24.6c13.5,0,24.6,11,24.6,24.6
			C249,895.1,238,906.1,224.4,906.1"/>
		<path class="st4" d="M224.4,852.9c-15.8,0-28.7,12.8-28.7,28.7c0,15.8,12.8,28.7,28.7,28.7c15.8,0,28.7-12.8,28.7-28.7
			C253.1,865.7,240.2,852.9,224.4,852.9z M224.4,906.1c-13.5,0-24.6-11-24.6-24.6c0-13.5,11-24.6,24.6-24.6
			c13.5,0,24.6,11,24.6,24.6C249,895.1,238,906.1,224.4,906.1z"/>
		<path class="st0" d="M816.7,957c-3,0-3.9-0.1-5.9-0.8c-3.1-1.1-6.2-3-10-5.8c-5.3-4.1-7.3-5.5-8.8-6c-0.7-0.3-3.3-0.8-7.5-1.3
			c-3.4-0.4-7.3-1-8.6-1.3c-8.3-1.8-11.6-6.3-11.6-15.7c0-5.9,1.3-9.8,4.5-13.7c0.6-0.7,3.2-3.1,5.9-5.4
			c6.8-5.9,10.1-10.1,13.3-16.6c6.5-13.4,9.6-31.9,10.4-61.8c0.2-8.3,0.3-10.5,0.8-12c2-6.4,7.3-11.4,13.5-12.7
			c1.3-0.3,2.6-0.4,3.9-0.4c2.8,0,5.5,0.6,8.2,1.9c2.8,1.4,6.5,5,7.9,7.7c1.9,3.8,2,4.6,2.3,15.8c0.2,10,0.3,11.4,0.9,19.6
			c1.1,15.2,3.9,28.9,7.8,38.6c3.4,8.3,7.2,13.4,14.4,19.6c7,6,9.1,8.9,10.4,13.9c0.7,2.9,0.7,8.9,0,11.6c-1.4,5.4-4.6,8.3-10.5,9.7
			c-1.4,0.3-5.4,0.9-8.9,1.4c-4,0.5-7,1-7.6,1.3c-1.4,0.6-4,2.3-8.8,6c-4,3-7,4.8-10,5.9C820.6,956.9,819.7,957,816.7,957
			 M804.2,825.9c-0.8,28-2.7,43.4-7,56.8c-4.2,13.1-8.8,20.1-19,28.8c-4.3,3.7-5,4.5-6.3,6.6c-1.4,2.3-1.9,4.9-1.8,9.1
			c0.1,2.7,0.3,3.6,0.7,4.7c1.2,2.6,2.9,3.9,10,4.9c2.4,0.3,6.1,0.8,8.2,1.1c5.2,0.7,6.6,1.4,13.5,6.6c7.3,5.5,10.2,6.9,14.1,6.9
			c4,0,6.9-1.4,14.1-6.9c7-5.2,8.3-5.9,13.5-6.6c2.1-0.3,5.8-0.8,8.2-1.1c8.6-1.2,10.4-2.8,10.7-9.7c0.3-7.1-1-9.5-7.8-15.4
			c-9.4-8.1-14.1-14.6-17.9-25c-5.2-14.2-7.7-31.9-8.3-59c-0.2-9.5-0.4-10.4-2.2-13.3c-1.7-2.5-5-4.7-7.6-5.1
			c-1.1-0.2-2-0.2-2.8-0.2c-1.5,0-2.9,0.3-4.4,0.9c-3,1.2-5.2,3.3-6.8,6.6l-0.9,1.8L804.2,825.9z"/>
		<path class="st5" d="M816.7,804.3c2.6,0,5.2,0.6,7.7,1.8c2.6,1.3,6.2,4.8,7.4,7.2c1.8,3.6,1.9,4.2,2.1,15.3
			c0.2,10.1,0.3,11.5,0.9,19.7c1.1,15.4,3.9,29.1,7.9,38.9c3.5,8.4,7.3,13.7,14.7,20c6.8,5.8,8.9,8.6,10,13.4
			c0.7,2.8,0.7,8.5,0,11.1c-1.3,5-4.1,7.7-9.8,9c-1.3,0.3-5.3,0.9-8.8,1.3c-3.5,0.4-7,1-7.8,1.3c-1.5,0.6-3.9,2.2-9,6.1
			c-3.9,2.9-6.8,4.7-9.8,5.7c-1.9,0.7-2.7,0.8-5.6,0.8c-3,0-3.7-0.1-5.6-0.8c-2.9-1.1-6-2.9-9.7-5.7c-5.4-4.2-7.5-5.6-9-6.2
			c-0.9-0.4-4-0.9-7.7-1.3c-3.4-0.4-7.2-1-8.5-1.3c-7.8-1.7-10.8-5.8-10.8-14.7c0-5.7,1.2-9.3,4.3-13.1c0.6-0.7,3.1-3,5.7-5.3
			c6.9-6,10.3-10.3,13.5-16.9c6.6-13.6,9.7-32.3,10.5-62.2c0.2-8.2,0.3-10.4,0.7-11.8c1.9-6,6.9-10.8,12.8-12.1
			C814.2,804.5,815.4,804.3,816.7,804.3 M816.7,952.4c4.2,0,7.3-1.5,14.7-7.1c6.8-5.2,8.1-5.7,13.1-6.4c2.1-0.3,5.8-0.8,8.2-1.1
			c9.1-1.3,11.3-3.2,11.6-10.6c0.3-7.4-1.1-10.1-8.2-16.2c-9.3-7.9-13.9-14.4-17.6-24.6c-5.2-14.1-7.6-31.7-8.2-58.7
			c-0.2-9.6-0.4-10.7-2.4-13.8c-1.8-2.7-5.4-5.1-8.3-5.6c-1.1-0.2-2.1-0.3-3-0.3c-1.7,0-3.2,0.3-4.8,0.9c-3.3,1.3-5.6,3.5-7.3,7.1
			l-1,2l-0.2,7.7c-0.8,27.9-2.7,43.1-7,56.5c-4.2,12.9-8.7,19.7-18.7,28.3c-4.4,3.8-5.2,4.6-6.5,6.8c-1.5,2.5-2.1,5.4-1.9,9.6
			c0.1,2.8,0.3,3.8,0.8,5c1.5,3.3,4,4.6,10.8,5.5c2.4,0.3,6.1,0.8,8.2,1.1c5,0.7,6.2,1.3,13.1,6.4
			C809.4,950.9,812.5,952.4,816.7,952.4 M816.7,802.3c-1.4,0-2.8,0.2-4.2,0.5c-6.5,1.4-12.1,6.7-14.3,13.4
			c-0.5,1.6-0.7,3.8-0.8,12.3c-0.7,29.7-3.8,48.1-10.3,61.4c-3.1,6.4-6.4,10.5-13.1,16.3c-2.5,2.1-5.2,4.6-6,5.5l0,0l0,0
			c-3.4,4.2-4.7,8.2-4.7,14.4c0,9.8,3.7,14.8,12.4,16.7c1.3,0.3,5.2,0.9,8.6,1.3c4.3,0.5,6.8,1,7.3,1.2c1.3,0.5,3.4,1.9,8.5,5.9
			c3.8,2.9,7.1,4.8,10.2,6c2.2,0.8,3.2,0.9,6.3,0.9c3.1,0,4.1-0.1,6.3-0.9c3.2-1.1,6.3-2.9,10.3-6c4.7-3.6,7.2-5.3,8.6-5.9
			c0.4-0.2,3.1-0.6,7.3-1.2c3.6-0.4,7.6-1.1,9-1.4c6.4-1.5,9.8-4.6,11.3-10.4c0.8-2.9,0.8-9,0-12.1c-1.3-5.2-3.6-8.4-10.7-14.4
			c-7.1-6.1-10.8-11.1-14.1-19.2c-3.9-9.6-6.6-23.1-7.7-38.2c-0.6-8.2-0.7-9.6-0.9-19.6c-0.2-11.1-0.3-12.1-2.4-16.2
			c-1.5-2.9-5.3-6.7-8.3-8.1C822.5,803,819.6,802.3,816.7,802.3 M805.4,818.6l0.8-1.6c1.4-3.1,3.4-5,6.2-6.1
			c1.5-0.6,2.7-0.8,4.1-0.8c0.8,0,1.7,0.1,2.7,0.2c2.4,0.4,5.4,2.5,6.9,4.7c1.7,2.5,1.9,3.1,2.1,12.7c0.6,27.2,3.1,45,8.4,59.3
			c3.9,10.6,8.6,17.3,18.2,25.5c6.6,5.7,7.7,7.8,7.5,14.6c-0.2,6-1.2,7.5-9.8,8.7c-2.2,0.3-5.7,0.8-8.2,1.1c-5.4,0.7-6.9,1.5-14,6.8
			c-7.5,5.7-10.1,6.7-13.5,6.7c-3.4,0-6-1-13.5-6.7c-7.1-5.3-8.6-6.1-14-6.8c-3.7-0.5-6.4-0.9-8.2-1.1c-6.6-0.9-8.2-2.1-9.2-4.3
			c-0.4-0.8-0.5-1.6-0.6-4.3c-0.1-3.9,0.3-6.4,1.6-8.5c1.2-1.9,1.7-2.6,6.1-6.3c10.3-8.8,15-15.9,19.3-29.2
			c4.4-13.5,6.3-29,7.1-57.1L805.4,818.6z"/>
		<path class="st0" d="M512.2,858.8c0-10-8.1-18.1-18.1-18.1c-10,0-18.1,8.1-18.1,18.1c0,6.8,3.7,12.7,9.3,15.8l0.4-12
			c0-4.9,4-8.9,8.9-8.9h0.5c3.9,0,7,3.1,7,7V875C508.1,872.1,512.2,865.9,512.2,858.8"/>
		<path class="st6" d="M512.2,858.8c0-10-8.1-18.1-18.1-18.1c-10,0-18.1,8.1-18.1,18.1c0,6.8,3.7,12.7,9.3,15.8l0.4-12
			c0-4.9,4-8.9,8.9-8.9h0.5c3.9,0,7,3.1,7,7V875C508.1,872.1,512.2,865.9,512.2,858.8z"/>
		<path class="st0" d="M502.1,860.7c0-3.9-3.1-7-7-7h-0.5c-4.9,0-8.9,4-8.9,8.9l-0.4,12l-0.8,26.5c-0.2,0.8-0.3,19.2-0.3,19.2
			c-1.6-1.6-3.3-3.4-4.8-5.1c-3.6-4.1-10.3-6.8-14.8-7.3c-2.3-0.3-4.1,0.1-5.3,0.9c-0.4,0.3-0.8,0.6-1.1,1c-2.3,2.3-4,5.9-2.4,8.6
			c0.7,1.2,1.9,1.9,3.1,2.8c1.7,1.1,4.5,2.3,6.6,5c3.5,4.5,11.8,14.7,16.8,20.1c1.1,0.7,3.3,2.9,4.3,3.4c3.2,2,5.8,4,6.7,5
			c0.7,0.8,4.9,2.9,4.9,2.9c3.4,2.1,9.5,4.1,16.6,4.1c7.1,0,13.5,0.4,18.3-3.8h0.3l0.1-0.3c4.8-4.4,7.8-10.6,7.8-17.3v-9v-23.4
			c0-1.6-0.3-6.9-4.8-8.5c-2.2-0.8-4.2-0.5-5.9,0.3l-0.4,0l-0.1,0c-0.8-2.9-2.7-4.8-5.6-5.3c-3.5-0.6-5.9,0.4-7.3,1.5
			c-1.4-3.1-4.3-4.7-8.2-4.4c-2.9,0.2-5.1,1.7-6.7,3.6v-20V860.7z"/>
		<path class="st6" d="M502.1,860.7c0-3.9-3.1-7-7-7h-0.5c-4.9,0-8.9,4-8.9,8.9l-0.4,12l-0.8,26.5c-0.2,0.8-0.3,19.2-0.3,19.2
			c-1.6-1.6-3.3-3.4-4.8-5.1c-3.6-4.1-10.3-6.8-14.8-7.3c-2.3-0.3-4.1,0.1-5.3,0.9c-0.4,0.3-0.8,0.6-1.1,1c-2.3,2.3-4,5.9-2.4,8.6
			c0.7,1.2,1.9,1.9,3.1,2.8c1.7,1.1,4.5,2.3,6.6,5c3.5,4.5,11.8,14.7,16.8,20.1c1.1,0.7,3.3,2.9,4.3,3.4c3.2,2,5.8,4,6.7,5
			c0.7,0.8,4.9,2.9,4.9,2.9c3.4,2.1,9.5,4.1,16.6,4.1c7.1,0,13.5,0.4,18.3-3.8h0.3l0.1-0.3c4.8-4.4,7.8-10.6,7.8-17.3v-9v-23.4
			c0-1.6-0.3-6.9-4.8-8.5c-2.2-0.8-4.2-0.5-5.9,0.3l-0.4,0l-0.1,0c-0.8-2.9-2.7-4.8-5.6-5.3c-3.5-0.6-5.9,0.4-7.3,1.5
			c-1.4-3.1-4.3-4.7-8.2-4.4c-2.9,0.2-5.1,1.7-6.7,3.6v-20V860.7z"/>
		<path class="st0" d="M534.6,888.9l3.6,4c0.7,0.8,1.9,0.7,2.6-0.1c6.9-9.6,10.8-21.2,10.8-33.4c0-31.6-25.7-57.4-57.4-57.4
			c-2.2,0-4.4,0.1-6.5,0.4c-26.4,2.9-47.6,24.2-50.5,50.7c-1.6,14.4,2.3,28.4,10.4,39.7c0.6,0.8,1.9,0.9,2.6,0.1l3.6-4
			c0.5-0.6,0.5-1.4,0.1-2c-5.8-8.4-8.8-18.5-8.5-28.9c0.7-25.4,21.1-46.2,46.5-47.3c28-1.4,51.2,21.1,51.2,48.8
			c0,9.9-3,19.4-8.5,27.5C534,887.5,534,888.3,534.6,888.9"/>
		<path class="st6" d="M534.6,888.9l3.6,4c0.7,0.8,1.9,0.7,2.6-0.1c6.9-9.6,10.8-21.2,10.8-33.4c0-31.6-25.7-57.4-57.4-57.4
			c-2.2,0-4.4,0.1-6.5,0.4c-26.4,2.9-47.6,24.2-50.5,50.7c-1.6,14.4,2.3,28.4,10.4,39.7c0.6,0.8,1.9,0.9,2.6,0.1l3.6-4
			c0.5-0.6,0.5-1.4,0.1-2c-5.8-8.4-8.8-18.5-8.5-28.9c0.7-25.4,21.1-46.2,46.5-47.3c28-1.4,51.2,21.1,51.2,48.8
			c0,9.9-3,19.4-8.5,27.5C534,887.5,534,888.3,534.6,888.9z"/>
		<path class="st0" d="M518.4,870.9l3.8,4.2c0.8,0.9,2.2,0.7,2.7-0.4c2.4-4.8,3.7-10,3.7-15.4c0-16.2-11.5-30.5-27.4-33.8
			c-4.6-1-9.5-1-14.2,0c-15.9,3.3-27.4,17.5-27.4,33.8c0,5.5,1.3,10.7,3.7,15.4c0.5,1,1.9,1.2,2.7,0.4l3.8-4.2
			c0.4-0.5,0.5-1.1,0.3-1.7c-1.3-3.1-2-6.4-2-9.8c0-10.9,6.9-20.7,17.1-24.4c5.7-2.1,12.1-2.1,17.8,0c10.2,3.7,17.1,13.6,17.1,24.4
			c0,3.4-0.7,6.7-1.9,9.8C517.9,869.8,518,870.4,518.4,870.9"/>
		<path class="st6" d="M518.4,870.9l3.8,4.2c0.8,0.9,2.2,0.7,2.7-0.4c2.4-4.8,3.7-10,3.7-15.4c0-16.2-11.5-30.5-27.4-33.8
			c-4.6-1-9.5-1-14.2,0c-15.9,3.3-27.4,17.5-27.4,33.8c0,5.5,1.3,10.7,3.7,15.4c0.5,1,1.9,1.2,2.7,0.4l3.8-4.2
			c0.4-0.5,0.5-1.1,0.3-1.7c-1.3-3.1-2-6.4-2-9.8c0-10.9,6.9-20.7,17.1-24.4c5.7-2.1,12.1-2.1,17.8,0c10.2,3.7,17.1,13.6,17.1,24.4
			c0,3.4-0.7,6.7-1.9,9.8C517.9,869.8,518,870.4,518.4,870.9z"/>
	</g>
</g>
</svg>
