<?xml version="1.0" encoding="utf-8"?>
<!-- Generator: Adobe Illustrator 22.0.0, SVG Export Plug-In . SVG Version: 6.00 Build 0)  -->
<svg version="1.1" id="Layer_1" xmlns="http://www.w3.org/2000/svg" xmlns:xlink="http://www.w3.org/1999/xlink" x="0px" y="0px"
	 viewBox="0 0 364.6 234.9" style="enable-background:new 0 0 364.6 234.9;" xml:space="preserve">
<style type="text/css">
	.st0{opacity:0.7;fill:#034EA2;}
	.st1{fill:#FFFFFF;}
</style>
<path class="st0" d="M348.5,208.5c0,6-4.9,10.9-10.9,10.9H33.8c-6,0-10.8-4.9-10.8-10.9V26.7c0-6,4.9-10.9,10.8-10.9h303.8
	c6,0,10.9,4.9,10.9,10.9V208.5z"/>
<path class="st1" d="M200.4,116.1v3.5c-3.6-3-8.2-4.6-12.9-4.6c-11.7,0-21.3,10.2-21.3,22.8s9.5,22.8,21.3,22.8
	c4.7,0,9.3-1.7,12.9-4.6v3.9h9.8v-43.7H200.4z M188.6,151.9c-7.1,0-12.8-6.3-12.8-14.2s5.8-14.1,12.8-14.1s12.8,6.3,12.8,14.2
	S195.7,151.9,188.6,151.9 M139.5,115c-4.7,0-9.4,1.7-13,4.8v-3.7h-9.8v59.5h9.8v-19.9c3.6,3.1,8.3,4.7,13,4.8
	c11.7,0,21.3-10.2,21.3-22.8C160.7,125.3,151.3,115,139.5,115 M138.4,151.9c-7.1,0-12.8-6.3-12.8-14.2s5.8-14.2,12.8-14.2
	c7.1,0,12.8,6.3,12.8,14.2S145.4,151.9,138.4,151.9 M251.7,116.1l-12.5,29.7l-13.4-29.7h-9.7l18.4,40.9l-7.9,18.7h9.6l25.1-59.5
	H251.7z M268.1,61.4l0.5,28.8h-0.2l-8.5-28.8h-13.7v36.3h9L254.8,68h0.2l9.1,29.8h13.1V61.4H268.1z M95.3,61.4l-6.8,36.7h9.9l5-33.3
	h0.2l4.9,33.3h9.8l-6.8-36.7H95.3z M150.8,61.4l-4.6,28.1h-0.2l-4.5-28.1h-15l-0.8,36.7h9.2l0.2-33h0.2l6.2,33h9.3l6.1-33h0.2
	l0.2,33h9.2l-0.8-36.7H150.8z M73.1,87.7c0.3,0.9,0.3,1.9,0.1,2.8c-0.3,1.2-1.1,2.4-3.6,2.4c-2.3,0-3.7-1.3-3.7-3.3V86H56v2.8
	c0,8.2,6.4,10.7,13.4,10.7c6.7,0,12.1-2.2,13-8.4c0.4-2,0.4-4,0-6c-1.6-7.7-15.5-9.9-16.5-14.3c-0.1-0.6-0.1-1.3,0-2
	c0.3-1.2,1-2.5,3.3-2.5c1.8-0.2,3.3,1.1,3.4,2.8v0.6v2.2h9.2v-2.6c0-8-7.2-9.3-12.4-9.3c-6.5,0-11.9,2.1-12.8,8.2
	c-0.4,1.7-0.4,3.3,0,5C58.2,80.9,71.2,83,73.1,87.7 M192.4,87.7c0.3,0.8,0.3,1.8,0.1,2.7c-0.3,1.2-1.1,2.4-3.5,2.4
	c-2.2,0-3.6-1.3-3.6-3.3v-3.5h-9.8v2.8c0,8.1,6.4,10.5,13.2,10.5c6.6,0,12-2.2,12.8-8.3c0.4-2,0.4-4,0-5.9
	c-1.6-7.5-15.4-9.8-16.3-14.1c-0.1-0.7-0.1-1.2,0-1.9c0.3-1.2,1-2.4,3.3-2.4c1.7-0.2,3.3,1.1,3.3,2.8V70v2.2h9v-2.6
	c0-7.9-7.1-9.2-12.3-9.2c-6.5,0-11.7,2.1-12.7,8.1c-0.3,1.6-0.3,3.3,0.1,4.9C177.6,80.9,190.6,83,192.4,87.7 M223.2,92.6
	c1.7,0.2,3.2-1,3.5-2.6c0.1-0.5,0.1-0.9,0.1-1.4V61.4h9.3v26.3c0,0.7-0.1,2-0.1,2.4c-0.7,6.9-6,9.1-12.8,9.1s-12.2-2.2-12.8-9.1
	c0-0.4-0.1-1.8-0.1-2.4V61.4h9.3v27.1c0,0.5,0,0.9,0.1,1.4C220.1,91.6,221.6,92.8,223.2,92.6 M299.8,92.2c2.7,0,3.6-1.7,3.7-2.6
	c0.1-0.5,0.1-0.9,0.1-1.4v-5.3h-3.7v-5.4h13v9.8c0,0.7,0,1.2-0.1,2.4c-0.6,6.7-6.4,9.1-12.9,9.1s-12.3-2.4-12.9-9.1
	c-0.1-1.2-0.1-1.8-0.1-2.4V71.9c0-0.8,0.1-1.6,0.2-2.4c0.8-6.9,6.4-9.1,12.9-9.1c6.5,0,12.2,2.1,12.9,9.1c0.1,0.8,0.1,1.6,0.1,2.4
	v1.2h-9.3v-2c0-0.5,0-0.9-0.1-1.4c-0.2-0.8-0.8-2.7-3.7-2.7c-1.8-0.2-3.3,1-3.6,2.7c-0.1,0.6-0.2,1.1-0.2,1.8v16.8
	c0,0.5,0,0.9,0.1,1.4C296.2,90.5,297.1,92.2,299.8,92.2"/>
</svg>
