<?xml version="1.0" encoding="utf-8"?>
<!-- Generator: Adobe Illustrator 22.0.0, SVG Export Plug-In . SVG Version: 6.00 Build 0)  -->
<svg version="1.1" id="Layer_1" xmlns="http://www.w3.org/2000/svg" xmlns:xlink="http://www.w3.org/1999/xlink" x="0px" y="0px"
	 viewBox="0 0 364.6 234.9" style="enable-background:new 0 0 364.6 234.9;" xml:space="preserve">
<style type="text/css">
	.st0{opacity:0.7;fill:#3957A7;}
	.st1{fill:#FFFFFF;}
	.st2{fill:#F9A533;}
</style>
<path class="st0" d="M348.3,208.2c0,6-4.9,10.8-10.9,10.8H33.7c-6,0-10.8-4.9-10.8-10.8V26.4c0-6,4.9-10.9,10.8-10.9h303.8
	c6,0,10.9,4.9,10.9,10.9V208.2z"/>
<polygon class="st1" points="172.6,147.8 156.7,147.8 166.7,86.8 182.6,86.8 "/>
<path class="st1" d="M143.3,86.8l-15.2,42l-1.8-9v0L121,92.3c0,0-0.6-5.5-7.5-5.5H88.4l-0.3,1c0,0,7.7,1.6,16.6,7l13.8,53.1h16.6
	l25.3-61.1H143.3z"/>
<path class="st1" d="M268.4,147.8H283l-12.7-61.1h-12.8c-5.9,0-7.3,4.6-7.3,4.6l-23.7,56.5H243l3.3-9.1h20.2L268.4,147.8z
	 M250.9,126.2l8.4-22.9l4.7,22.9H250.9z"/>
<path class="st1" d="M227.7,101.4l2.3-13.1c0,0-7-2.7-14.3-2.7c-7.9,0-26.6,3.4-26.6,20.2c0,15.8,22,16,22,24.3
	c0,8.3-19.7,6.8-26.2,1.6l-2.4,13.7c0,0,7.1,3.5,18,3.5c10.9,0,27.2-5.6,27.2-20.9c0-15.9-22.2-17.4-22.2-24.3
	C205.4,96.8,220.9,97.7,227.7,101.4"/>
<path class="st2" d="M126.4,119.7L121,92.3c0,0-0.6-5.5-7.5-5.5H88.4l-0.3,1c0,0,12,2.5,23.6,11.8
	C122.8,108.6,126.4,119.7,126.4,119.7"/>
</svg>
