<?xml version="1.0" encoding="utf-8"?>
<!-- Generator: Adobe Illustrator 22.0.0, SVG Export Plug-In . SVG Version: 6.00 Build 0)  -->
<svg version="1.1" id="Layer_1" xmlns="http://www.w3.org/2000/svg" xmlns:xlink="http://www.w3.org/1999/xlink" x="0px" y="0px"
	 viewBox="0 0 364.6 234.9" style="enable-background:new 0 0 364.6 234.9;" xml:space="preserve">
<style type="text/css">
	.st0{fill:#0078A9;}
	.st1{fill:#FFFFFF;}
</style>
<path class="st0" d="M348.5,209c0,6-4.9,10.8-10.9,10.8H33.8c-6,0-10.8-4.9-10.8-10.8V27.3c0-6,4.9-10.8,10.8-10.8h303.8
	c6,0,10.9,4.9,10.9,10.8V209z"/>
<g>
	<polygon class="st1" points="68.2,92.8 78.1,92.8 73.2,80.2 	"/>
	<polygon class="st1" points="120.7,134.9 120.7,140.8 137.3,140.8 137.3,147 120.7,147 120.7,153.8 139.1,153.8 147.6,144.3 
		139.5,134.9 	"/>
	<polygon class="st1" points="250.3,80.2 244.9,92.8 255.3,92.8 	"/>
	<polygon class="st1" points="168.7,157.4 168.7,131.8 157,144.3 	"/>
	<path class="st1" d="M190.7,139c-0.4-2.7-2.2-4-4.9-4h-9.4v8.1h9.9C188.9,143,190.7,141.7,190.7,139z"/>
	<path class="st1" d="M222.1,142.1c0.9-0.4,1.3-1.8,1.3-3.1c0.4-1.8-0.5-2.7-1.3-3.1c-0.9-0.4-2.2-0.4-3.6-0.4h-9v7.2h9
		C219.8,142.6,221.2,142.6,222.1,142.1z"/>
	<path class="st1" d="M286.6,68.6v5.4l-2.7-5.4h-21.1v5.4l-2.7-5.4h-28.7c-4.9,0-9,0.9-12.6,2.7v-2.7h-20.2V69v2.2
		c-2.2-1.8-4.9-2.7-8.5-2.7H118l-4.9,11.2l-4.9-11.2H92h-6.7v5.4L83,68.6h-0.4H63.3l-9,21.1L44,112.5l-0.2,0.4H44h22.9h0.3l0.2-0.4
		l2.7-6.7h5.8l2.7,7.2h26v-0.4v-4.9l2.2,5.4h13l2.2-5.4v4.9v0.4h10.3h51.6h0.4v-11.7h0.9c0.9,0,0.9,0,0.9,1.3v9.9h32.3v-2.7
		c2.7,1.3,6.7,2.7,12.1,2.7H244l2.7-7.2h6.3l2.7,7.2h26V108v-2.2l4,6.7h0.9h0.5h19.7V68.6H286.6L286.6,68.6L286.6,68.6z
		 M134.6,106.2h-4.5h-2.7v-2.7v-22l-0.4,1v0l-10.4,23.6h-0.3h-2.4h-3.9L99.2,81.6v24.7H83.9l-3.1-6.7H65.5l-3.1,6.7h-7.9l13.3-31.4
		H79l12.6,30v-30h2.7h9.2l0.2,0.4h0l5.7,12.3l4.1,9.2l0.1-0.5l9-21.5h12.1L134.6,106.2L134.6,106.2L134.6,106.2z M165.6,81.6h-17.5
		v5.8h17v6.3h-17v6.3h17.5v6.7h-25.1V74.8h25.1V81.6L165.6,81.6z M197.5,93.1C197.6,93.1,197.6,93.1,197.5,93.1
		c0.2,0.2,0.4,0.4,0.5,0.6c0.9,1.1,1.6,2.8,1.6,5.3c0,0,0,0.1,0,0.1c0,0,0,0,0,0.1c0,0,0,0,0,0c0,0.2,0,0.5,0,0.8v6.3h-6.7v-3.6
		c0-1.8,0-4.5-1.3-6.3c-0.4-0.4-0.9-0.7-1.3-0.9c-0.7-0.4-1.9-0.4-4.1-0.4h-8.1v11.2h-7.6V74.8h17c4,0,6.7,0,9,1.3
		c2.2,1.3,3.5,3.5,3.6,7c-0.1,4.8-3.2,7.4-5.4,8.3C194.7,91.4,196.2,91.7,197.5,93.1z M212.6,106.2H205V74.8h7.6V106.2z
		 M300.1,106.2h-9.9l-14.4-23.8v19.7l0,0v4.1h-7.6v0h-7.6l-2.7-6.7h-15.7l-2.7,7.2H231c-3.6,0-8.1-0.9-10.8-3.6
		c-2.7-2.7-4-6.3-4-12.1c0-4.5,0.9-9,4-12.6c2.2-2.7,6.3-3.6,11.2-3.6h7.2v6.7h-7.2c-2.7,0-4,0.4-5.8,1.8c-1.3,1.3-2.2,4-2.2,7.2
		c0,3.6,0.4,5.8,2.2,7.6c1.3,1.3,3.1,1.8,5.4,1.8h3.1l10.3-24.7h4.5h6.7l12.6,30v-1.5V93.7v-0.9V75.3h11.2l13,22v-22h7.6
		L300.1,106.2L300.1,106.2L300.1,106.2L300.1,106.2z"/>
	<path class="st1" d="M191.2,87.9c0.1-0.1,0.2-0.3,0.4-0.5c0.4-0.6,0.9-1.8,0.6-3.4c0-0.1,0-0.3-0.1-0.4c0,0,0-0.1,0-0.1l0,0
		c-0.2-0.8-0.8-1.2-1.4-1.5c-0.9-0.4-2.2-0.4-3.6-0.4h-9v7.2h9c1.3,0,2.7,0,3.6-0.4c0.1-0.1,0.3-0.2,0.4-0.3l0,0
		C191,88,191.1,88,191.2,87.9z"/>
	<path class="st1" d="M326.6,151.1c0-3.1-0.9-6.3-2.2-8.5v-20.2h0V121c0,0-18.8,0-21.6,0c-2.8,0-6.2,2.7-6.2,2.7V121h-20.6
		c-3.1,0-7.2,0.9-9,2.7V121h-36.8v1.3v1.3c-2.7-2.2-7.6-2.7-9.9-2.7h-24.2v1.3v1.3c-2.2-2.2-7.6-2.7-10.3-2.7h-26.9l-6.3,6.7
		l-5.8-6.7h-1.9h-3.1h-35.4v1.3v3.5v40.4h39.5l6.5-6.5l5.6,6.5h0.5h22.7h1h0.4h0.4v-4.5V156h2.2c3.1,0,7.2,0,10.3-1.3v11.2v0.9h20.2
		v-0.9v-10.8h0.9c1.3,0,1.3,0,1.3,1.3v9.4v0.9h61c4,0,8.1-0.9,10.3-2.7v1.8v0.9h19.3c4,0,8.1-0.4,10.8-2.2c4.1-2.5,6.7-6.9,7.1-12.1
		c0-0.2,0-0.3,0.1-0.5l0,0C326.5,151.7,326.6,151.4,326.6,151.1z M185.3,148.4h-9v1.3v2.7v2.7v4.9h-14.7l-8.6-9.9l0,0l-0.4-0.5
		l-9.9,10.3H114v-31.4h29.2l8,8.7l1.7,1.8l0.2-0.2l9.4-10.3h23.8c4.6,0,9.8,1.1,11.7,5.8c0.2,0.9,0.4,2,0.4,3.1
		C198.3,146.6,192,148.4,185.3,148.4z M230.1,147.9c0.9,1.3,1.3,3.1,1.3,5.8v6.3h-7.6v-4c0-1.8,0-4.9-1.3-6.3
		c-0.9-1.3-2.7-1.3-5.4-1.3h-8.1V160h-7.6v-31.8h17c3.6,0,6.7,0,9,1.3c2.2,1.3,4,3.6,4,7.2c0,4.9-3.1,7.6-5.4,8.5
		C228.3,146.1,229.7,147,230.1,147.9z M261.1,134.9h-17.5v5.8h17v6.3h-17v6.3h17.5v6.7H236v-31.8h25.1V134.9z M279.9,160h-14.4v-6.7
		h14.4c1.3,0,2.2,0,3.1-0.9c0.4-0.4,0.9-1.3,0.9-2.2c0-0.9-0.4-1.8-0.9-2.2c-0.5-0.4-1.3-0.9-2.7-0.9c-7.2-0.4-15.7,0-15.7-9.9
		c0-4.5,2.7-9.4,10.8-9.4h14.8v7.6h-13.9c-1.3,0-2.2,0-3.1,0.4c-0.9,0.4-0.9,1.3-0.9,2.2c0,1.3,0.9,1.8,1.8,2.2
		c0.9,0.4,1.8,0.4,2.7,0.4h4c4,0,6.7,0.9,8.5,2.7c1.3,1.3,2.2,3.6,2.2,6.7C291.6,156.9,287.5,160,279.9,160z M318.5,156.9
		c-1.8,1.8-4.9,3.1-9.4,3.1h-14.3v-6.7h14.3c1.3,0,2.2,0,3.1-0.9c0.4-0.4,0.9-1.3,0.9-2.2c0-0.9-0.5-1.8-0.9-2.2
		c-0.4-0.4-1.3-0.9-2.7-0.9c-7.2-0.4-15.7,0-15.7-9.9c0-4.3,2.4-8.1,8.5-9.3c0.7-0.1,1.5-0.2,2.3-0.2h14.8v7.6h-9.9h-3.6h-0.4
		c-1.3,0-2.2,0-3.1,0.4c-0.5,0.4-0.9,1.3-0.9,2.2c0,1.3,0.4,1.8,1.8,2.2c0.9,0.4,1.8,0.4,2.7,0.4h0.4h3.6c2,0,3.4,0.2,4.8,0.7
		c1.2,0.4,5.4,2.3,6.3,7.1c0.1,0.5,0.1,1,0.1,1.6C321.2,152.9,320.3,155.1,318.5,156.9z"/>
</g>
</svg>
