<?xml version="1.0" encoding="utf-8"?>
<!-- Generator: Adobe Illustrator 22.0.0, SVG Export Plug-In . SVG Version: 6.00 Build 0)  -->
<svg version="1.1" id="Layer_1" xmlns="http://www.w3.org/2000/svg" xmlns:xlink="http://www.w3.org/1999/xlink" x="0px" y="0px"
	 viewBox="0 0 364.6 234.9" style="enable-background:new 0 0 364.6 234.9;" xml:space="preserve">
<style type="text/css">
	.st0{opacity:0.7;fill:#231F20;}
	.st1{fill:#FFFFFF;}
</style>
<path class="st0" d="M337.4,15.8H33.6c-6,0-10.8,4.9-10.8,10.8v181.8c0,6,4.9,10.8,10.8,10.8h303.8c6,0,10.9-4.9,10.9-10.8V26.6
	C348.3,20.6,343.4,15.8,337.4,15.8"/>
<path class="st1" d="M104.6,79.3c-3,3.6-7.8,6.4-12.6,6c-0.6-4.8,1.8-9.9,4.5-13.1c3-3.7,8.3-6.3,12.5-6.5
	C109.5,70.7,107.5,75.6,104.6,79.3 M109,86.2c-7-0.4-12.9,4-16.3,4c-3.4,0-8.4-3.8-14-3.7c-7.2,0.1-13.9,4.2-17.5,10.6
	c-7.5,12.9-2,32.1,5.3,42.7c3.6,5.2,7.8,10.9,13.5,10.7c5.3-0.2,7.4-3.5,13.9-3.5c6.5,0,8.3,3.5,14,3.4c5.8-0.1,9.5-5.2,13-10.4
	c4.1-5.9,5.7-11.7,5.8-12c-0.1-0.1-11.2-4.4-11.3-17.2c-0.1-10.7,8.8-15.9,9.2-16.2C119.5,87.2,111.7,86.4,109,86.2 M149.3,71.7
	v78.2h12.1v-26.8h16.8c15.4,0,26.1-10.5,26.1-25.8s-10.6-25.7-25.7-25.7H149.3z M161.4,81.9h14c10.5,0,16.6,5.6,16.6,15.5
	s-6,15.6-16.6,15.6h-14V81.9z M226.5,150.5c7.6,0,14.7-3.9,17.9-10h0.3v9.4H256V111c0-11.3-9-18.6-22.9-18.6
	c-12.9,0-22.4,7.4-22.8,17.5h10.9c0.9-4.8,5.4-8,11.5-8c7.4,0,11.6,3.5,11.6,9.8v4.3l-15.2,0.9c-14.1,0.9-21.7,6.6-21.7,16.7
	C207.4,143.8,215.3,150.5,226.5,150.5 M229.8,141.2c-6.5,0-10.6-3.1-10.6-7.9c0-4.9,4-7.8,11.5-8.2l13.5-0.9v4.4
	C244.3,136,238,141.2,229.8,141.2 M271,171.2c11.8,0,17.4-4.5,22.3-18.2l21.3-59.8h-12.3l-14.3,46.2h-0.3l-14.3-46.2h-12.7l20.6,57
	l-1.1,3.5c-1.9,5.9-4.9,8.1-10.2,8.1c-1,0-2.8-0.1-3.6-0.2v9.4C267.1,171.1,270.1,171.2,271,171.2"/>
</svg>
