<?xml version="1.0" encoding="utf-8"?>
<!-- Generator: Adobe Illustrator 22.0.0, SVG Export Plug-In . SVG Version: 6.00 Build 0)  -->
<svg version="1.1" id="Layer_1" xmlns="http://www.w3.org/2000/svg" xmlns:xlink="http://www.w3.org/1999/xlink" x="0px" y="0px"
	 viewBox="0 0 230.3 226.7" style="enable-background:new 0 0 230.3 226.7;" xml:space="preserve">
<style type="text/css">
	.st0{opacity:0.7;fill:#00B050;stroke:#00B050;stroke-width:5;stroke-linejoin:round;stroke-miterlimit:10;}
	.st1{fill:#FFFFFF;}
</style>
<path class="st0" d="M115.9,191.4c47,0,85.2-36.4,85.2-81.2c0-44.9-38.1-81.2-85.2-81.2c-47,0-85.2,36.4-85.2,81.2
	C30.7,155.1,68.8,191.4,115.9,191.4"/>
<path class="st1" d="M92.3,92.5h-0.2l-9.6,4.8l-1.7-7.5l12.9-6.3h8.3v52.6h-9.6V92.5z M150.8,109.4c0,17-6.6,27.6-19.2,27.6
	c-12.1,0-18.6-11-18.7-27.1c0-16.4,7-27.4,19.3-27.4C144.9,82.6,150.8,94,150.8,109.4z M122.9,109.9c0,12.8,3.5,19.5,9,19.5
	c5.9,0,8.9-7.1,8.9-19.7c0-12.3-2.9-19.4-8.9-19.4C126.6,90.2,122.9,96.8,122.9,109.9z"/>
</svg>
