<?xml version="1.0" encoding="utf-8"?>
<!-- Generator: Adobe Illustrator 22.0.0, SVG Export Plug-In . SVG Version: 6.00 Build 0)  -->
<svg version="1.1" id="Layer_1" xmlns="http://www.w3.org/2000/svg" xmlns:xlink="http://www.w3.org/1999/xlink" x="0px" y="0px"
	 viewBox="0 0 117.3 102.7" style="enable-background:new 0 0 117.3 102.7;" xml:space="preserve">
<style type="text/css">
	.st0{display:none;opacity:0.7;fill:#FF0000;}
	.st1{opacity:0.7;fill:#FF0000;stroke:#FF0000;stroke-width:5;stroke-linejoin:round;stroke-miterlimit:10;}
	.st2{fill:#FFFFFF;}
	.st3{fill:#FF0000;}
	.st4{font-family:'TimesNewRomanPSMT';}
	.st5{font-size:25.2092px;}
</style>
<path class="st0" d="M58.6,9.5c-21.1,0-38.1,18.2-38.1,40.6c0,22.4,17.1,40.6,38.1,40.6c21.1,0,38.1-18.2,38.1-40.6
	C96.7,27.6,79.6,9.5,58.6,9.5"/>
<ellipse class="st1" cx="58.6" cy="50.1" rx="38.1" ry="40.6"/>
<path class="st2" d="M64.8,49.7c0,5.3-2.1,8.6-6,8.6c-3.8,0-5.8-3.4-5.8-8.4c0-5.1,2.2-8.5,6-8.5C62.9,41.3,64.8,44.8,64.8,49.7z
	 M56.1,49.8c0,4,1.1,6.1,2.8,6.1c1.8,0,2.8-2.2,2.8-6.1c0-3.8-0.9-6.1-2.8-6.1C57.2,43.7,56.1,45.7,56.1,49.8z"/>
<text transform="matrix(1 0 0 1 64.8101 57.9569)" class="st3 st4 st5"> </text>
</svg>
