<?xml version="1.0" encoding="utf-8"?>
<!-- Generator: Adobe Illustrator 22.0.0, SVG Export Plug-In . SVG Version: 6.00 Build 0)  -->
<svg version="1.1" id="Layer_1" xmlns="http://www.w3.org/2000/svg" xmlns:xlink="http://www.w3.org/1999/xlink" x="0px" y="0px"
	 viewBox="0 0 117.3 102.7" style="enable-background:new 0 0 117.3 102.7;" xml:space="preserve">
<style type="text/css">
	.st0{opacity:0.7;fill:#FF0000;stroke:#FF0000;stroke-width:5;stroke-linejoin:round;stroke-miterlimit:10;}
	.st1{fill:#FFFFFF;}
	.st2{fill:#FF0000;}
	.st3{font-family:'TimesNewRomanPSMT';}
	.st4{font-size:25.2092px;}
</style>
<path class="st0" d="M96.9,50.4c0-22.4-17.1-40.6-38.1-40.6c-21.1,0-38.1,18.2-38.1,40.6C20.7,72.8,37.7,91,58.8,91
	C79.8,91,96.9,72.8,96.9,50.4"/>
<path class="st1" d="M52.4,58.2v-1.9l1.9-1.8c3.9-3.6,5.7-5.5,5.7-7.7c0-1.5-0.8-2.8-2.9-2.8c-1.4,0-2.7,0.7-3.5,1.4l-0.9-2.2
	c1.2-0.9,3-1.7,5-1.7c3.6,0,5.4,2.3,5.4,5c0,2.9-2.1,5.2-4.9,7.8l-1.4,1.2v0.1h6.7v2.6H52.4z"/>
<text transform="matrix(1 0 0 1 64.0576 58.2461)" class="st2 st3 st4"> </text>
</svg>
