<?xml version="1.0" encoding="utf-8"?>
<!-- Generator: Adobe Illustrator 22.0.0, SVG Export Plug-In . SVG Version: 6.00 Build 0)  -->
<svg version="1.1" id="Layer_1" xmlns="http://www.w3.org/2000/svg" xmlns:xlink="http://www.w3.org/1999/xlink" x="0px" y="0px"
	 viewBox="0 0 117.3 102.7" style="enable-background:new 0 0 117.3 102.7;" xml:space="preserve">
<style type="text/css">
	.st0{opacity:0.7;fill:#FFC000;stroke:#FFC000;stroke-width:5;stroke-linejoin:round;stroke-miterlimit:10;}
	.st1{fill:#FFC000;}
	.st2{font-family:'TimesNewRomanPSMT';}
	.st3{font-size:25.2092px;}
	.st4{fill:#FFFFFF;}
</style>
<path class="st0" d="M96,50.4C96,27.9,78.9,9.8,57.9,9.8c-21.1,0-38.1,18.2-38.1,40.6C19.7,72.8,36.8,91,57.9,91
	C78.9,91,96,72.8,96,50.4"/>
<text transform="matrix(1 0 0 1 64.249 58.2461)" class="st1 st2 st3"> </text>
<path class="st4" d="M59.8,58.3v-4.2h-7.4v-2l6.7-10.2h3.7v9.9h2.1v2.3h-2.1v4.2H59.8z M59.8,51.7v-4.5c0-0.9,0-1.9,0.1-2.8l-0.1,0
	c-0.5,1-0.9,1.9-1.4,2.8l-3,4.5l0,0.1H59.8z"/>
<text transform="matrix(1 0 0 1 64.6064 58.2627)" class="st1 st2 st3"> </text>
</svg>
