<?xml version="1.0" encoding="utf-8"?>
<!-- Generator: Adobe Illustrator 22.0.0, SVG Export Plug-In . SVG Version: 6.00 Build 0)  -->
<svg version="1.1" id="Layer_1" xmlns="http://www.w3.org/2000/svg" xmlns:xlink="http://www.w3.org/1999/xlink" x="0px" y="0px"
	 viewBox="0 0 117.3 102.7" style="enable-background:new 0 0 117.3 102.7;" xml:space="preserve">
<style type="text/css">
	.st0{opacity:0.7;fill:#FFC000;stroke:#FFC000;stroke-width:5;stroke-linejoin:round;stroke-miterlimit:10;}
	.st1{fill:#FFFFFF;}
</style>
<path class="st0" d="M96,50.4C96,27.9,78.9,9.8,57.9,9.8c-21.1,0-38.1,18.2-38.1,40.6C19.7,72.8,36.8,91,57.9,91
	C78.9,91,96,72.8,96,50.4"/>
<path class="st1" d="M63.3,44.4H57l-0.5,3.3c0.4,0,0.7-0.1,1.2-0.1c1.4,0,2.9,0.3,4,1.1c1.2,0.8,2.1,2.2,2.1,4.2
	c0,3.1-2.6,5.7-6.6,5.7c-1.9,0-3.5-0.5-4.3-1l0.6-2.3c0.7,0.4,2.1,0.9,3.6,0.9c1.8,0,3.6-1,3.5-3c0-1.9-1.4-3.1-4.7-3.1
	c-0.9,0-1.6,0.1-2.2,0.2l1.1-8.3h8.5V44.4z"/>
</svg>
