<?xml version="1.0" encoding="utf-8"?>
<!-- Generator: Adobe Illustrator 22.0.0, SVG Export Plug-In . SVG Version: 6.00 Build 0)  -->
<svg version="1.1" id="Layer_1" xmlns="http://www.w3.org/2000/svg" xmlns:xlink="http://www.w3.org/1999/xlink" x="0px" y="0px"
	 viewBox="0 0 1080 65.7" style="enable-background:new 0 0 1080 65.7;" xml:space="preserve">
<style type="text/css">
	.st0{display:none;}
	.st1{display:inline;fill:#0F2347;stroke:#D87E41;stroke-width:8;stroke-miterlimit:10;}
	.st2{fill:none;}
	.st3{display:none;opacity:0.6;}
	.st4{display:inline;fill:#C1A08A;}
	.st5{fill:url(#SVGID_1_);stroke:url(#SVGID_2_);stroke-miterlimit:10;}
</style>
<g class="st0">
	<path class="st1" d="M1034.6-384.4H735c-6.6,0-12-5.4-12-12v-747.7c0-6.6,5.4-12,12-12h299.6c6.6,0,12,5.4,12,12v747.7
		C1046.6-389.8,1041.2-384.4,1034.6-384.4z"/>
	
		<image style="display:inline;overflow:visible;opacity:0.6;" width="1068" height="798" xlink:href="D3961C62.jpg"  transform="matrix(0.9999 0 0 0.9999 -10 -1168.277)">
	</image>
</g>
<image style="display:none;overflow:visible;opacity:0.3;" width="1080" height="1800" xlink:href="../../../../../../Interfaz/UX_DESIGN_FOR_ADP_-_PARIS_AIRPORT_SCREENS/cognac Wallpaper.jpg"  transform="matrix(1.0676 0 0 1.0676 -42 -1854.277)">
</image>
<line class="st2" x1="89" y1="-1862.3" x2="323" y2="-1862.3"/>
<g class="st3">
	<path class="st4" d="M1033.9-383.3H734.3c-6.6,0-12-5.4-12-12V-1143c0-6.6,5.4-12,12-12h299.6c6.6,0,12,5.4,12,12v747.7
		C1045.9-388.7,1040.5-383.3,1033.9-383.3z"/>
</g>
<linearGradient id="SVGID_1_" gradientUnits="userSpaceOnUse" x1="1" y1="46.4731" x2="1085" y2="46.4731">
	<stop  offset="0" style="stop-color:#FF0000"/>
	<stop  offset="0.1731" style="stop-color:#FFAA3F"/>
	<stop  offset="0.259" style="stop-color:#FEF70D"/>
	<stop  offset="0.2725" style="stop-color:#EDF813"/>
	<stop  offset="0.349" style="stop-color:#90FC31"/>
	<stop  offset="0.4026" style="stop-color:#56FE45"/>
	<stop  offset="0.4282" style="stop-color:#3FFF4C"/>
	<stop  offset="0.471" style="stop-color:#30FC89"/>
	<stop  offset="0.5564" style="stop-color:#13F5FF"/>
	<stop  offset="0.573" style="stop-color:#15E3FA"/>
	<stop  offset="0.6744" style="stop-color:#2078DB"/>
	<stop  offset="0.6808" style="stop-color:#2173D9"/>
	<stop  offset="0.7346" style="stop-color:#2548CD"/>
	<stop  offset="0.8846" style="stop-color:#A31FF6"/>
	<stop  offset="0.9538" style="stop-color:#C015FF"/>
</linearGradient>
<linearGradient id="SVGID_2_" gradientUnits="userSpaceOnUse" x1="0.5" y1="46.4731" x2="1085.5" y2="46.4731">
	<stop  offset="0" style="stop-color:#FF0000"/>
	<stop  offset="0.1731" style="stop-color:#FFAA3F"/>
	<stop  offset="0.259" style="stop-color:#FEF70D"/>
	<stop  offset="0.2725" style="stop-color:#EDF813"/>
	<stop  offset="0.349" style="stop-color:#90FC31"/>
	<stop  offset="0.4026" style="stop-color:#56FE45"/>
	<stop  offset="0.4282" style="stop-color:#3FFF4C"/>
	<stop  offset="0.471" style="stop-color:#30FC89"/>
	<stop  offset="0.5564" style="stop-color:#13F5FF"/>
	<stop  offset="0.573" style="stop-color:#15E3FA"/>
	<stop  offset="0.6744" style="stop-color:#2078DB"/>
	<stop  offset="0.6808" style="stop-color:#2173D9"/>
	<stop  offset="0.7346" style="stop-color:#2548CD"/>
	<stop  offset="0.8846" style="stop-color:#A31FF6"/>
	<stop  offset="0.9538" style="stop-color:#C015FF"/>
</linearGradient>
<rect x="1" y="26.2" class="st5" width="1084" height="40.5"/>
</svg>
